<?xml version="1.0" encoding="UTF-8" standalone="no"?><svg xmlns="http://www.w3.org/2000/svg" xmlns:xlink="http://www.w3.org/1999/xlink" contentScriptType="text/ecmascript" fill="#000000" width="484.4" zoomAndPan="magnify" contentStyleType="text/css" viewBox="0.0 0.0 484.4 460.2" height="460.2" preserveAspectRatio="xMidYMid meet" version="1"><defs><clipPath id="a"><path d="M 180 445 L 196 445 L 196 460.21875 L 180 460.21875 Z M 180 445"/></clipPath><clipPath id="b"><path d="M 275 252 L 484.449219 252 L 484.449219 281 L 275 281 Z M 275 252"/></clipPath><clipPath id="c"><path d="M 269 290 L 361 290 L 361 460.21875 L 269 460.21875 Z M 269 290"/></clipPath></defs><g><g id="change1_2"><path fill="#c6a242" d="M 235.324219 235.363281 C 235.324219 235.363281 233.820312 231.800781 231.195312 225.570312 C 228.585938 219.332031 224.859375 210.421875 220.386719 199.726562 C 218.152344 194.378906 215.734375 188.585938 213.175781 182.453125 C 210.640625 176.316406 207.96875 169.84375 205.203125 163.148438 C 199.683594 149.753906 193.800781 135.464844 187.914062 121.171875 C 184.941406 114.039062 181.972656 106.90625 179.050781 99.882812 C 176.09375 92.871094 173.226562 85.957031 170.554688 79.226562 C 167.917969 72.480469 165.417969 65.9375 163.171875 59.6875 C 162.039062 56.566406 160.9375 53.527344 159.871094 50.589844 C 158.839844 47.640625 157.84375 44.789062 156.886719 42.054688 C 154.96875 36.578125 153.300781 31.53125 151.816406 27.054688 C 150.347656 22.570312 149.097656 18.65625 148.101562 15.414062 C 147.097656 12.175781 146.335938 9.625 145.832031 7.875 C 145.332031 6.128906 145.066406 5.195312 145.066406 5.195312 L 145.714844 4.9375 C 145.714844 4.9375 146.152344 5.804688 146.976562 7.425781 C 147.796875 9.050781 148.972656 11.441406 150.4375 14.5 C 151.910156 17.550781 153.652344 21.277344 155.625 25.5625 C 157.578125 29.851562 159.785156 34.691406 162.101562 40.007812 C 163.257812 42.664062 164.464844 45.433594 165.714844 48.300781 C 166.929688 51.179688 168.183594 54.15625 169.476562 57.214844 C 172.078125 63.324219 174.691406 69.820312 177.34375 76.5625 C 179.960938 83.316406 182.558594 90.335938 185.15625 97.488281 C 187.785156 104.625 190.457031 111.878906 193.128906 119.128906 C 198.523438 133.609375 203.921875 148.089844 208.980469 161.667969 C 211.503906 168.460938 213.941406 175.023438 216.253906 181.246094 C 218.542969 187.480469 220.707031 193.375 222.707031 198.816406 C 226.695312 209.699219 230.019531 218.769531 232.347656 225.117188 C 234.65625 231.476562 235.976562 235.105469 235.976562 235.105469 L 235.324219 235.363281"/></g><g id="change1_3"><path fill="#c6a242" d="M 236.273438 244.84375 C 236.273438 244.84375 234.46875 243.382812 231.3125 240.820312 C 228.167969 238.246094 223.675781 234.570312 218.285156 230.15625 C 215.59375 227.945312 212.675781 225.554688 209.59375 223.023438 C 206.519531 220.480469 203.273438 217.796875 199.921875 215.023438 C 193.203125 209.480469 186.109375 203.492188 178.992188 197.53125 C 175.433594 194.550781 171.839844 191.609375 168.292969 188.722656 C 164.738281 185.847656 161.277344 182.976562 157.996094 180.121094 C 154.734375 177.238281 151.632812 174.394531 148.753906 171.628906 C 145.867188 168.878906 143.171875 166.230469 140.71875 163.75 C 138.261719 161.277344 136.042969 158.96875 134.105469 156.890625 C 132.164062 154.816406 130.492188 152.984375 129.140625 151.449219 C 126.425781 148.386719 124.953125 146.546875 124.953125 146.546875 L 125.417969 146.023438 C 125.417969 146.023438 127.425781 147.253906 130.800781 149.566406 C 132.492188 150.71875 134.515625 152.152344 136.8125 153.824219 C 139.117188 155.488281 141.679688 157.402344 144.441406 159.535156 C 147.203125 161.664062 150.164062 164.007812 153.253906 166.535156 C 156.355469 169.050781 159.558594 171.773438 162.820312 174.652344 C 166.0625 177.554688 169.339844 180.636719 172.632812 183.808594 C 175.933594 186.972656 179.300781 190.171875 182.699219 193.335938 C 189.496094 199.660156 196.316406 205.957031 202.644531 211.9375 C 205.8125 214.921875 208.875 217.808594 211.78125 220.542969 C 214.675781 223.292969 217.410156 225.890625 219.9375 228.289062 C 224.980469 233.089844 229.1875 237.09375 232.132812 239.894531 C 235.0625 242.710938 236.734375 244.316406 236.734375 244.316406 L 236.273438 244.84375"/></g><g id="change1_4"><path fill="#c6a242" d="M 247.773438 253.851562 C 247.773438 253.851562 249.980469 255.640625 253.847656 258.777344 C 257.695312 261.929688 263.195312 266.429688 269.796875 271.832031 C 273.09375 274.535156 276.664062 277.46875 280.445312 280.566406 C 284.207031 283.683594 288.175781 286.96875 292.277344 290.367188 C 300.476562 297.179688 309.222656 304.445312 317.96875 311.714844 C 322.359375 315.324219 326.753906 318.933594 331.074219 322.488281 C 335.421875 326.015625 339.667969 329.523438 343.707031 333 C 347.722656 336.503906 351.566406 339.933594 355.121094 343.285156 C 356.910156 344.953125 358.644531 346.574219 360.324219 348.144531 C 361.980469 349.742188 363.582031 351.28125 365.121094 352.765625 C 368.195312 355.726562 370.953125 358.507812 373.398438 360.972656 C 375.832031 363.449219 377.9375 365.632812 379.644531 367.457031 C 381.355469 369.277344 382.683594 370.726562 383.574219 371.730469 C 384.46875 372.734375 384.941406 373.273438 384.941406 373.273438 L 384.484375 373.800781 C 384.484375 373.800781 383.886719 373.402344 382.769531 372.65625 C 381.652344 371.914062 380.035156 370.796875 377.996094 369.351562 C 375.953125 367.910156 373.503906 366.128906 370.710938 364.058594 C 367.933594 361.976562 364.796875 359.625 361.441406 356.988281 C 359.765625 355.671875 358.015625 354.296875 356.207031 352.875 C 354.421875 351.429688 352.574219 349.929688 350.675781 348.390625 C 346.867188 345.328125 342.941406 341.992188 338.917969 338.5 C 334.921875 334.980469 330.859375 331.257812 326.769531 327.4375 C 322.652344 323.644531 318.472656 319.789062 314.289062 315.9375 C 305.890625 308.273438 297.488281 300.613281 289.613281 293.429688 C 285.679688 289.832031 281.878906 286.355469 278.273438 283.058594 C 274.683594 279.742188 271.289062 276.605469 268.160156 273.714844 C 261.898438 267.921875 256.683594 263.09375 253.03125 259.710938 C 249.394531 256.316406 247.316406 254.378906 247.316406 254.378906 L 247.773438 253.851562"/></g><g id="change1_5"><path fill="#c6a242" d="M 253.957031 246.59375 C 253.957031 246.59375 257.066406 244.300781 262.507812 240.285156 C 267.960938 236.285156 275.75 230.574219 285.097656 223.71875 C 289.773438 220.292969 294.839844 216.582031 300.195312 212.660156 C 305.566406 208.753906 311.234375 204.640625 317.09375 200.378906 C 328.824219 191.875 341.335938 182.804688 353.847656 173.730469 C 360.085938 169.171875 366.324219 164.609375 372.464844 160.121094 C 378.585938 155.601562 384.636719 151.195312 390.554688 147.019531 C 396.496094 142.875 402.269531 138.910156 407.816406 135.261719 C 410.585938 133.429688 413.28125 131.644531 415.886719 129.921875 C 418.511719 128.226562 421.050781 126.589844 423.484375 125.015625 C 428.355469 121.871094 432.875 119.0625 436.878906 116.570312 C 440.890625 114.09375 444.40625 111.957031 447.320312 110.230469 C 450.234375 108.496094 452.535156 107.152344 454.117188 106.257812 C 455.699219 105.359375 456.546875 104.882812 456.546875 104.882812 L 456.945312 105.453125 C 456.945312 105.453125 456.207031 106.085938 454.820312 107.261719 C 453.4375 108.441406 451.386719 110.144531 448.761719 112.285156 C 446.136719 114.433594 442.925781 117.003906 439.222656 119.921875 C 435.511719 122.828125 431.320312 126.109375 426.695312 129.605469 C 424.386719 131.355469 421.976562 133.175781 419.484375 135.0625 C 416.96875 136.917969 414.371094 138.839844 411.699219 140.8125 C 406.367188 144.773438 400.664062 148.835938 394.734375 152.996094 C 388.78125 157.121094 382.566406 161.296875 376.226562 165.496094 C 369.902344 169.726562 363.480469 174.023438 357.054688 178.320312 C 344.242188 186.960938 331.433594 195.605469 319.421875 203.707031 C 313.410156 207.75 307.601562 211.660156 302.089844 215.367188 C 296.566406 219.054688 291.347656 222.542969 286.523438 225.761719 C 276.878906 232.191406 268.84375 237.550781 263.214844 241.300781 C 257.578125 245.035156 254.355469 247.167969 254.355469 247.167969 L 253.957031 246.59375"/></g><g id="change1_6"><path fill="#c6a242" d="M 240.699219 244.480469 C 240.699219 244.480469 241.617188 241.097656 243.222656 235.175781 C 244.851562 229.257812 247.171875 220.804688 249.960938 210.660156 C 251.355469 205.59375 252.867188 200.101562 254.46875 194.289062 C 256.09375 188.488281 257.808594 182.367188 259.578125 176.039062 C 263.140625 163.382812 266.933594 149.882812 270.730469 136.382812 C 272.601562 129.628906 274.46875 122.867188 276.3125 116.214844 C 278.117188 109.554688 279.941406 103.007812 281.808594 96.710938 C 283.714844 90.417969 285.605469 84.355469 287.527344 78.640625 C 288.480469 75.78125 289.402344 73 290.300781 70.308594 C 291.230469 67.628906 292.128906 65.039062 292.988281 62.554688 C 294.710938 57.582031 296.378906 53.050781 297.855469 49.035156 C 299.347656 45.023438 300.675781 41.53125 301.804688 38.671875 C 302.929688 35.804688 303.835938 33.5625 304.472656 32.039062 C 305.113281 30.515625 305.453125 29.703125 305.453125 29.703125 L 306.121094 29.90625 C 306.121094 29.90625 305.957031 30.769531 305.648438 32.394531 C 305.339844 34.015625 304.855469 36.386719 304.207031 39.394531 C 303.566406 42.40625 302.746094 46.046875 301.769531 50.214844 C 300.78125 54.378906 299.664062 59.074219 298.351562 64.171875 C 297.695312 66.71875 297.015625 69.375 296.308594 72.121094 C 295.566406 74.855469 294.800781 77.6875 294.011719 80.59375 C 292.457031 86.417969 290.679688 92.519531 288.789062 98.8125 C 286.863281 105.097656 284.769531 111.558594 282.589844 118.109375 C 280.445312 124.671875 278.269531 131.335938 276.09375 138 C 271.792969 151.347656 267.496094 164.695312 263.464844 177.210938 C 261.441406 183.464844 259.488281 189.511719 257.636719 195.242188 C 255.757812 200.972656 253.984375 206.382812 252.347656 211.382812 C 249.0625 221.375 246.324219 229.703125 244.410156 235.53125 C 242.476562 241.355469 241.367188 244.683594 241.367188 244.683594 L 240.699219 244.480469"/></g><g id="change1_7"><path fill="#c6a242" d="M 217.820312 259.28125 C 217.820312 259.28125 215.503906 260.351562 211.445312 262.222656 C 207.382812 264.078125 201.578125 266.726562 194.613281 269.902344 C 191.128906 271.484375 187.351562 273.203125 183.359375 275.019531 C 179.371094 276.84375 175.136719 278.699219 170.769531 280.65625 C 162.03125 284.558594 152.710938 288.714844 143.390625 292.871094 C 138.738281 294.980469 134.078125 297.050781 129.515625 299.160156 C 124.953125 301.265625 120.441406 303.292969 116.039062 305.15625 C 111.617188 306.984375 107.328125 308.703125 103.203125 310.210938 C 101.148438 310.972656 99.148438 311.714844 97.210938 312.433594 C 95.261719 313.117188 93.378906 313.777344 91.570312 314.410156 C 87.957031 315.683594 84.605469 316.761719 81.640625 317.722656 C 78.664062 318.664062 76.0625 319.460938 73.902344 320.082031 C 71.746094 320.710938 70.042969 321.179688 68.871094 321.476562 C 67.703125 321.777344 67.078125 321.9375 67.078125 321.9375 L 66.808594 321.292969 C 66.808594 321.292969 67.363281 320.964844 68.402344 320.34375 C 69.4375 319.726562 70.972656 318.851562 72.9375 317.765625 C 74.902344 316.671875 77.300781 315.386719 80.070312 313.941406 C 82.84375 312.515625 85.96875 310.90625 89.421875 309.238281 C 91.148438 308.40625 92.945312 307.535156 94.804688 306.636719 C 96.675781 305.773438 98.613281 304.878906 100.605469 303.957031 C 104.582031 302.097656 108.828125 300.265625 113.238281 298.425781 C 117.667969 296.617188 122.285156 294.851562 126.996094 293.105469 C 131.710938 291.355469 136.46875 289.511719 141.238281 287.703125 C 150.761719 284.027344 160.285156 280.355469 169.210938 276.910156 C 173.679688 275.195312 177.980469 273.503906 182.089844 271.964844 C 186.195312 270.414062 190.074219 268.949219 193.65625 267.597656 C 200.820312 264.902344 206.792969 262.652344 210.972656 261.078125 C 215.160156 259.523438 217.554688 258.636719 217.554688 258.636719 L 217.820312 259.28125"/></g><g id="change1_8"><path fill="#c6a242" d="M 218.6875 267.191406 C 218.6875 267.191406 216.378906 268.9375 212.332031 271.992188 C 208.273438 275.035156 202.480469 279.375 195.527344 284.585938 C 192.046875 287.1875 188.277344 290.007812 184.289062 292.988281 C 180.289062 295.949219 176.070312 299.074219 171.703125 302.304688 C 162.96875 308.753906 153.648438 315.632812 144.324219 322.511719 C 139.683594 325.976562 135.039062 329.4375 130.46875 332.847656 C 125.917969 336.285156 121.414062 339.632812 116.992188 342.777344 C 112.546875 345.898438 108.21875 348.867188 104.039062 351.574219 C 101.957031 352.9375 99.929688 354.261719 97.96875 355.542969 C 95.984375 356.796875 94.070312 358.003906 92.234375 359.164062 C 88.558594 361.488281 85.136719 363.546875 82.105469 365.367188 C 79.0625 367.179688 76.394531 368.730469 74.175781 369.980469 C 71.960938 371.234375 70.207031 372.199219 68.996094 372.839844 C 67.789062 373.480469 67.144531 373.820312 67.144531 373.820312 L 66.742188 373.25 C 66.742188 373.25 67.28125 372.757812 68.292969 371.835938 C 69.300781 370.914062 70.804688 369.589844 72.730469 367.929688 C 74.65625 366.261719 77.019531 364.273438 79.75 362.023438 C 82.492188 359.785156 85.582031 357.257812 89.011719 354.585938 C 90.722656 353.246094 92.507812 351.855469 94.355469 350.410156 C 96.226562 348.996094 98.15625 347.539062 100.144531 346.035156 C 104.101562 343.015625 108.359375 339.945312 112.792969 336.816406 C 117.25 333.71875 121.921875 330.605469 126.695312 327.484375 C 131.449219 324.332031 136.277344 321.132812 141.105469 317.933594 C 150.726562 311.480469 160.347656 305.03125 169.371094 298.984375 C 173.886719 295.96875 178.25 293.050781 182.386719 290.285156 C 186.539062 287.539062 190.46875 284.945312 194.089844 282.546875 C 201.34375 277.761719 207.386719 273.773438 211.617188 270.980469 C 215.863281 268.207031 218.285156 266.621094 218.285156 266.621094 L 218.6875 267.191406"/></g><g id="change1_9"><path fill="#c6a242" d="M 245.621094 261.429688 C 245.621094 261.429688 246 264.371094 246.660156 269.519531 C 247.300781 274.671875 248.21875 282.03125 249.316406 290.863281 C 249.863281 295.277344 250.453125 300.0625 251.078125 305.121094 C 251.679688 310.183594 252.3125 315.523438 252.96875 321.046875 C 254.265625 332.09375 255.648438 343.875 257.03125 355.65625 C 257.75 361.546875 258.472656 367.433594 259.179688 373.230469 C 259.925781 379.023438 260.609375 384.730469 261.164062 390.261719 C 261.683594 395.796875 262.132812 401.152344 262.421875 406.246094 C 262.578125 408.792969 262.730469 411.265625 262.878906 413.660156 C 262.988281 416.058594 263.09375 418.375 263.195312 420.601562 C 263.40625 425.046875 263.503906 429.132812 263.59375 432.757812 C 263.664062 436.378906 263.699219 439.539062 263.691406 442.148438 C 263.6875 444.753906 263.660156 446.804688 263.621094 448.203125 C 263.582031 449.605469 263.5625 450.351562 263.5625 450.351562 L 262.863281 450.417969 C 262.863281 450.417969 262.703125 449.6875 262.398438 448.320312 C 262.097656 446.953125 261.6875 444.945312 261.191406 442.386719 C 260.691406 439.824219 260.132812 436.714844 259.519531 433.144531 C 258.925781 429.566406 258.253906 425.535156 257.621094 421.128906 C 257.304688 418.925781 256.972656 416.628906 256.632812 414.253906 C 256.324219 411.875 256.007812 409.414062 255.683594 406.886719 C 255.007812 401.832031 254.4375 396.484375 253.90625 390.953125 C 253.410156 385.414062 253.011719 379.683594 252.652344 373.851562 C 252.257812 368.023438 251.855469 362.105469 251.453125 356.1875 C 250.597656 344.355469 249.734375 332.523438 248.929688 321.429688 C 248.53125 315.882812 248.148438 310.519531 247.789062 305.433594 C 247.449219 300.347656 247.128906 295.539062 246.835938 291.097656 C 246.253906 282.21875 245.765625 274.816406 245.425781 269.636719 C 245.105469 264.453125 244.925781 261.492188 244.925781 261.492188 L 245.621094 261.429688"/></g><g id="change1_10"><path fill="#c6a242" d="M 229.757812 250.253906 C 229.757812 250.253906 226.949219 250.222656 222.027344 250.160156 C 217.113281 250.082031 210.089844 249.96875 201.65625 249.832031 C 197.445312 249.761719 192.878906 249.683594 188.050781 249.597656 C 183.222656 249.492188 178.128906 249.378906 172.863281 249.261719 C 162.328125 249.011719 151.09375 248.746094 139.859375 248.480469 C 134.238281 248.378906 128.621094 248.273438 123.089844 248.175781 C 117.558594 248.109375 112.113281 247.996094 106.851562 247.777344 C 101.589844 247.523438 96.507812 247.222656 91.695312 246.804688 C 89.289062 246.605469 86.945312 246.414062 84.679688 246.226562 C 82.417969 246.003906 80.230469 245.789062 78.132812 245.582031 C 73.933594 245.171875 70.089844 244.703125 66.683594 244.289062 C 63.277344 243.855469 60.304688 243.453125 57.863281 243.082031 C 55.417969 242.71875 53.5 242.40625 52.195312 242.171875 C 50.886719 241.941406 50.191406 241.816406 50.191406 241.816406 L 50.222656 241.117188 C 50.222656 241.117188 50.929688 241.058594 52.253906 240.949219 C 53.574219 240.839844 55.515625 240.707031 57.980469 240.574219 C 60.449219 240.433594 63.441406 240.3125 66.875 240.199219 C 70.304688 240.109375 74.175781 240.003906 78.394531 239.988281 C 80.503906 239.980469 82.703125 239.96875 84.976562 239.960938 C 87.25 239.984375 89.597656 240.015625 92.011719 240.042969 C 96.84375 240.074219 101.933594 240.253906 107.195312 240.492188 C 112.453125 240.773438 117.882812 241.167969 123.398438 241.621094 C 128.914062 242.039062 134.519531 242.464844 140.121094 242.890625 C 151.332031 243.679688 162.542969 244.46875 173.054688 245.207031 C 178.308594 245.585938 183.386719 245.949219 188.203125 246.296875 C 193.019531 246.667969 197.574219 247.019531 201.773438 247.34375 C 210.179688 247.996094 217.183594 248.542969 222.089844 248.925781 C 226.988281 249.324219 229.789062 249.554688 229.789062 249.554688 L 229.757812 250.253906"/></g><g id="change1_11"><path fill="#c6a242" d="M 236.574219 254.457031 C 236.574219 254.457031 234.636719 254.941406 231.242188 255.792969 C 227.847656 256.621094 223 257.808594 217.179688 259.230469 C 214.269531 259.9375 211.113281 260.703125 207.78125 261.515625 C 204.441406 262.3125 200.921875 263.148438 197.28125 264.015625 C 190 265.765625 182.210938 267.523438 174.433594 269.320312 C 170.542969 270.21875 166.660156 271.164062 162.847656 272.113281 C 159.03125 273.070312 155.269531 273.96875 151.605469 274.726562 C 147.933594 275.453125 144.371094 276.082031 140.976562 276.589844 C 137.585938 277.109375 134.363281 277.542969 131.382812 277.898438 C 128.402344 278.261719 125.664062 278.539062 123.222656 278.742188 C 120.785156 278.949219 118.65625 279.105469 116.894531 279.195312 C 113.371094 279.386719 111.335938 279.378906 111.335938 279.378906 L 111.199219 278.691406 C 111.199219 278.691406 113.078125 277.90625 116.402344 276.734375 C 118.066406 276.144531 120.09375 275.46875 122.425781 274.730469 C 124.757812 273.984375 127.394531 273.191406 130.285156 272.386719 C 133.175781 271.570312 136.316406 270.738281 139.648438 269.921875 C 142.980469 269.089844 146.511719 268.308594 150.179688 267.574219 C 153.855469 266.875 157.675781 266.257812 161.566406 265.683594 C 165.453125 265.097656 169.402344 264.488281 173.339844 263.828125 C 181.214844 262.507812 189.082031 261.152344 196.476562 259.980469 C 200.171875 259.390625 203.746094 258.816406 207.136719 258.273438 C 210.527344 257.746094 213.734375 257.246094 216.691406 256.785156 C 222.613281 255.871094 227.546875 255.109375 231.003906 254.578125 C 234.460938 254.0625 236.4375 253.769531 236.4375 253.769531 L 236.574219 254.457031"/></g><g id="change1_12"><path fill="#c6a242" d="M 253.976562 235.007812 C 253.976562 235.007812 255.226562 233.410156 257.414062 230.617188 C 259.617188 227.839844 262.769531 223.867188 266.546875 219.101562 C 268.4375 216.722656 270.484375 214.140625 272.652344 211.414062 C 274.835938 208.699219 277.132812 205.832031 279.511719 202.867188 C 284.257812 196.933594 289.398438 190.667969 294.511719 184.382812 C 297.070312 181.238281 299.589844 178.0625 302.058594 174.925781 C 304.519531 171.78125 306.976562 168.722656 309.4375 165.828125 C 311.921875 162.957031 314.382812 160.234375 316.785156 157.710938 C 319.179688 155.175781 321.484375 152.816406 323.648438 150.675781 C 325.808594 148.523438 327.824219 146.589844 329.648438 144.902344 C 331.46875 143.214844 333.074219 141.757812 334.429688 140.585938 C 337.125 138.230469 338.757812 136.964844 338.757812 136.964844 L 339.285156 137.421875 C 339.285156 137.421875 338.265625 139.21875 336.328125 142.226562 C 335.359375 143.734375 334.152344 145.535156 332.742188 147.578125 C 331.339844 149.628906 329.714844 151.902344 327.898438 154.351562 C 326.089844 156.800781 324.089844 159.421875 321.929688 162.15625 C 319.777344 164.898438 317.4375 167.726562 314.953125 170.597656 C 312.445312 173.453125 309.773438 176.328125 307.019531 179.214844 C 304.269531 182.109375 301.488281 185.058594 298.75 188.046875 C 293.265625 194.015625 287.8125 200.007812 282.621094 205.558594 C 280.03125 208.339844 277.527344 211.027344 275.152344 213.578125 C 272.769531 216.117188 270.511719 218.515625 268.429688 220.730469 C 264.261719 225.15625 260.785156 228.847656 258.351562 231.429688 C 255.902344 233.996094 254.507812 235.464844 254.507812 235.464844 L 253.976562 235.007812"/></g><g id="change1_13"><path fill="#c6a242" d="M 254.5625 272.359375 C 254.5625 272.359375 255.46875 274.140625 257.0625 277.253906 C 258.632812 280.371094 260.882812 284.832031 263.578125 290.183594 C 264.921875 292.859375 266.378906 295.757812 267.921875 298.824219 C 269.445312 301.898438 271.054688 305.140625 272.722656 308.492188 C 276.0625 315.191406 279.53125 322.382812 283.03125 329.558594 C 284.78125 333.148438 286.578125 336.714844 288.363281 340.21875 C 290.15625 343.71875 291.875 347.1875 293.4375 350.585938 C 294.976562 353.996094 296.390625 357.324219 297.644531 360.519531 C 298.917969 363.707031 300.066406 366.746094 301.082031 369.570312 C 302.105469 372.394531 302.992188 375 303.742188 377.332031 C 304.492188 379.660156 305.125 381.699219 305.609375 383.398438 C 306.589844 386.785156 307.039062 388.773438 307.039062 388.773438 L 306.398438 389.058594 C 306.398438 389.058594 305.210938 387.40625 303.320312 384.429688 C 302.367188 382.941406 301.257812 381.117188 300.011719 379.011719 C 298.761719 376.910156 297.394531 374.515625 295.957031 371.882812 C 294.515625 369.25 292.996094 366.375 291.449219 363.3125 C 289.890625 360.253906 288.328125 356.988281 286.789062 353.582031 C 285.28125 350.15625 283.820312 346.574219 282.386719 342.914062 C 280.941406 339.257812 279.460938 335.546875 277.929688 331.859375 C 274.867188 324.484375 271.777344 317.125 268.972656 310.183594 C 267.5625 306.714844 266.199219 303.363281 264.90625 300.183594 C 263.628906 296.996094 262.421875 293.984375 261.304688 291.207031 C 259.082031 285.644531 257.230469 281.007812 255.933594 277.761719 C 254.652344 274.507812 253.921875 272.648438 253.921875 272.648438 L 254.5625 272.359375"/></g><g id="change1_14"><path fill="#c6a242" d="M 270.125 246.535156 C 270.125 246.535156 272.566406 246.035156 276.832031 245.152344 C 281.105469 244.292969 287.207031 243.066406 294.527344 241.589844 C 298.1875 240.855469 302.15625 240.0625 306.351562 239.222656 C 310.546875 238.371094 314.980469 237.546875 319.5625 236.652344 C 328.726562 234.886719 338.503906 233.003906 348.277344 231.117188 C 353.164062 230.148438 358.050781 229.214844 362.851562 228.222656 C 367.652344 227.230469 372.386719 226.304688 376.984375 225.511719 C 381.589844 224.757812 386.046875 224.082031 390.296875 223.570312 C 392.421875 223.308594 394.488281 223.050781 396.484375 222.800781 C 398.488281 222.585938 400.425781 222.378906 402.285156 222.183594 C 406 221.78125 409.425781 221.507812 412.457031 221.261719 C 415.492188 221.035156 418.144531 220.863281 420.335938 220.761719 C 422.523438 220.648438 424.246094 220.589844 425.425781 220.566406 C 426.605469 220.546875 427.230469 220.535156 427.230469 220.535156 L 427.347656 221.226562 C 427.347656 221.226562 426.746094 221.417969 425.625 221.777344 C 424.503906 222.140625 422.851562 222.636719 420.742188 223.238281 C 418.636719 223.84375 416.070312 224.535156 413.125 225.300781 C 410.175781 226.042969 406.847656 226.886719 403.199219 227.707031 C 401.375 228.117188 399.476562 228.546875 397.511719 228.988281 C 395.539062 229.398438 393.5 229.816406 391.402344 230.253906 C 387.214844 231.140625 382.777344 231.9375 378.175781 232.703125 C 373.566406 233.4375 368.789062 234.085938 363.925781 234.691406 C 359.058594 235.296875 354.128906 235.988281 349.191406 236.644531 C 339.332031 238.011719 329.46875 239.375 320.222656 240.65625 C 315.601562 241.289062 311.136719 241.9375 306.890625 242.480469 C 302.648438 243.039062 298.636719 243.5625 294.933594 244.050781 C 287.527344 245.011719 281.355469 245.816406 277.035156 246.375 C 272.710938 246.917969 270.242188 247.226562 270.242188 247.226562 L 270.125 246.535156"/></g><g id="change1_15"><path fill="#c6a242" d="M 254.375 252.992188 C 254.375 252.992188 256.449219 253.742188 260.082031 255.054688 C 263.710938 256.382812 268.886719 258.28125 275.101562 260.5625 C 278.207031 261.707031 281.574219 262.945312 285.132812 264.257812 C 288.683594 265.582031 292.433594 266.976562 296.308594 268.425781 C 304.0625 271.300781 312.296875 274.46875 320.542969 277.605469 C 324.667969 279.175781 328.8125 280.695312 332.894531 282.175781 C 336.980469 283.648438 340.984375 285.144531 344.820312 286.691406 C 348.644531 288.269531 352.308594 289.863281 355.746094 291.464844 C 359.191406 293.046875 362.429688 294.597656 365.398438 296.074219 C 368.367188 297.546875 371.074219 298.941406 373.453125 300.21875 C 375.835938 301.492188 377.898438 302.628906 379.585938 303.601562 C 382.964844 305.535156 384.847656 306.75 384.847656 306.75 L 384.578125 307.394531 C 384.578125 307.394531 382.386719 306.929688 378.628906 305.921875 C 376.746094 305.425781 374.480469 304.777344 371.894531 304.003906 C 369.304688 303.234375 366.402344 302.320312 363.257812 301.273438 C 360.109375 300.230469 356.71875 299.050781 353.15625 297.746094 C 349.589844 296.457031 345.863281 295.007812 342.042969 293.433594 C 338.230469 291.832031 334.335938 290.074219 330.394531 288.238281 C 326.453125 286.414062 322.441406 284.574219 318.410156 282.78125 C 310.347656 279.199219 302.273438 275.648438 294.738281 272.226562 C 290.972656 270.523438 287.328125 268.875 283.871094 267.3125 C 280.425781 265.734375 277.164062 264.242188 274.152344 262.867188 C 268.136719 260.109375 263.121094 257.808594 259.609375 256.199219 C 256.109375 254.570312 254.105469 253.640625 254.105469 253.640625 L 254.375 252.992188"/></g><g id="change1_16"><path fill="#c6a242" d="M 367.464844 279.855469 C 367.464844 279.855469 371.320312 280.484375 377.070312 281.550781 C 379.945312 282.089844 383.296875 282.710938 386.878906 283.429688 C 390.464844 284.113281 394.265625 284.945312 398.074219 285.742188 C 399.980469 286.144531 401.894531 286.492188 403.789062 286.820312 C 405.683594 287.144531 407.539062 287.492188 409.300781 287.953125 C 411.058594 288.425781 412.730469 288.984375 414.296875 289.589844 C 415.863281 290.175781 417.332031 290.789062 418.671875 291.402344 C 420.019531 292.007812 421.234375 292.621094 422.304688 293.191406 C 423.378906 293.753906 424.292969 294.3125 425.046875 294.773438 C 426.554688 295.707031 427.382812 296.355469 427.382812 296.355469 L 427.195312 297.027344 C 427.195312 297.027344 426.152344 297.160156 424.382812 297.191406 C 423.496094 297.203125 422.425781 297.214844 421.214844 297.148438 C 420.003906 297.089844 418.644531 296.992188 417.179688 296.824219 C 415.714844 296.664062 414.140625 296.4375 412.488281 296.140625 C 410.835938 295.859375 409.113281 295.484375 407.363281 294.984375 C 405.613281 294.484375 403.84375 293.828125 402.050781 293.140625 C 400.253906 292.453125 398.429688 291.773438 396.589844 291.140625 C 392.90625 289.875 389.21875 288.644531 385.785156 287.394531 C 382.34375 286.179688 379.144531 285 376.398438 283.992188 C 370.914062 281.964844 367.28125 280.527344 367.28125 280.53125 L 367.464844 279.855469"/></g><g id="change1_17"><path fill="#c6a242" d="M 326.449219 128.441406 C 326.449219 128.441406 328.675781 125.230469 332.109375 120.496094 C 333.832031 118.136719 335.835938 115.375 338.023438 112.453125 C 340.183594 109.507812 342.566406 106.433594 344.925781 103.335938 C 346.105469 101.789062 347.246094 100.207031 348.355469 98.640625 C 349.464844 97.070312 350.574219 95.542969 351.75 94.152344 C 352.929688 92.765625 354.152344 91.496094 355.371094 90.347656 C 356.578125 89.183594 357.765625 88.121094 358.894531 87.171875 C 360.019531 86.21875 361.09375 85.382812 362.070312 84.664062 C 363.039062 83.9375 363.9375 83.347656 364.675781 82.867188 C 366.167969 81.90625 367.109375 81.4375 367.109375 81.4375 L 367.636719 81.898438 C 367.636719 81.898438 367.308594 82.894531 366.574219 84.507812 C 366.203125 85.3125 365.753906 86.285156 365.171875 87.347656 C 364.597656 88.414062 363.929688 89.601562 363.144531 90.851562 C 362.371094 92.105469 361.488281 93.429688 360.511719 94.792969 C 359.546875 96.164062 358.46875 97.558594 357.265625 98.925781 C 356.058594 100.289062 354.707031 101.605469 353.316406 102.929688 C 351.925781 104.253906 350.523438 105.609375 349.160156 107 C 346.4375 109.777344 343.738281 112.582031 341.132812 115.144531 C 338.558594 117.726562 336.113281 120.109375 334.023438 122.152344 C 329.835938 126.234375 326.980469 128.898438 326.980469 128.898438 L 326.449219 128.441406"/></g><g id="change1_18"><path fill="#c6a242" d="M 143.355469 93.378906 C 143.355469 93.378906 141.003906 90.976562 137.570312 87.296875 C 135.859375 85.453125 133.859375 83.304688 131.757812 80.972656 C 129.628906 78.660156 127.441406 76.132812 125.222656 73.625 C 124.117188 72.371094 122.96875 71.148438 121.824219 69.953125 C 120.679688 68.761719 119.570312 67.574219 118.609375 66.339844 C 117.648438 65.105469 116.808594 63.84375 116.070312 62.601562 C 115.320312 61.371094 114.660156 60.167969 114.089844 59.03125 C 113.511719 57.898438 113.027344 56.824219 112.621094 55.855469 C 112.210938 54.890625 111.90625 54.007812 111.660156 53.277344 C 111.171875 51.8125 110.988281 50.902344 110.988281 50.902344 L 111.546875 50.480469 C 111.546875 50.480469 112.371094 50.898438 113.65625 51.757812 C 114.292969 52.1875 115.066406 52.714844 115.886719 53.367188 C 116.714844 54.015625 117.621094 54.765625 118.558594 55.625 C 119.503906 56.476562 120.488281 57.433594 121.476562 58.484375 C 122.480469 59.523438 123.472656 60.664062 124.410156 61.921875 C 125.34375 63.175781 126.195312 64.558594 127.039062 65.980469 C 127.886719 67.398438 128.761719 68.832031 129.679688 70.230469 C 131.507812 73.03125 133.367188 75.8125 135.03125 78.480469 C 136.722656 81.125 138.261719 83.621094 139.585938 85.761719 C 142.222656 90.046875 143.914062 92.953125 143.914062 92.953125 L 143.355469 93.378906"/></g><g id="change1_19"><path fill="#c6a242" d="M 235.964844 258.449219 C 235.964844 258.449219 235.085938 260.472656 233.550781 264.011719 C 232 267.539062 229.78125 272.582031 227.117188 278.632812 C 225.785156 281.652344 224.339844 284.929688 222.808594 288.394531 C 221.265625 291.851562 219.640625 295.496094 217.957031 299.269531 C 214.601562 306.816406 210.925781 314.824219 207.285156 322.84375 C 205.460938 326.855469 203.6875 330.886719 201.953125 334.863281 C 200.230469 338.847656 198.488281 342.742188 196.703125 346.464844 C 194.894531 350.175781 193.074219 353.726562 191.265625 357.054688 C 189.472656 360.390625 187.722656 363.515625 186.0625 366.382812 C 184.410156 369.25 182.847656 371.855469 181.425781 374.148438 C 180.003906 376.441406 178.742188 378.425781 177.667969 380.046875 C 175.527344 383.289062 174.199219 385.089844 174.199219 385.089844 L 173.570312 384.78125 C 173.570312 384.78125 174.171875 382.628906 175.410156 378.945312 C 176.027344 377.101562 176.8125 374.882812 177.746094 372.351562 C 178.675781 369.820312 179.765625 366.984375 181.011719 363.917969 C 182.246094 360.847656 183.632812 357.542969 185.15625 354.074219 C 186.664062 350.601562 188.34375 346.980469 190.152344 343.269531 C 191.988281 339.570312 193.984375 335.800781 196.0625 331.988281 C 198.128906 328.175781 200.214844 324.292969 202.25 320.390625 C 206.328125 312.582031 210.375 304.757812 214.257812 297.464844 C 216.195312 293.816406 218.0625 290.289062 219.839844 286.945312 C 221.628906 283.605469 223.316406 280.449219 224.878906 277.539062 C 228.007812 271.714844 230.613281 266.863281 232.4375 263.46875 C 234.28125 260.078125 235.335938 258.144531 235.335938 258.144531 L 235.964844 258.449219"/></g><g id="change1_20"><path fill="#c6a242" d="M 236.210938 244.769531 C 236.210938 244.769531 235.019531 243.089844 232.9375 240.148438 C 230.867188 237.195312 227.917969 232.980469 224.375 227.921875 C 222.605469 225.386719 220.691406 222.644531 218.664062 219.742188 C 216.652344 216.832031 214.53125 213.765625 212.335938 210.589844 C 207.933594 204.25 203.328125 197.425781 198.691406 190.625 C 196.375 187.222656 194.011719 183.847656 191.675781 180.535156 C 189.328125 177.230469 187.0625 173.949219 184.960938 170.714844 C 182.882812 167.464844 180.941406 164.277344 179.179688 161.210938 C 177.402344 158.148438 175.769531 155.222656 174.308594 152.496094 C 172.835938 149.773438 171.53125 147.253906 170.414062 144.992188 C 169.292969 142.730469 168.339844 140.75 167.585938 139.09375 C 166.066406 135.789062 165.300781 133.839844 165.300781 133.839844 L 165.890625 133.464844 C 165.890625 133.464844 167.339844 134.976562 169.699219 137.742188 C 170.886719 139.121094 172.285156 140.820312 173.863281 142.785156 C 175.445312 144.75 177.1875 146.992188 179.042969 149.472656 C 180.902344 151.945312 182.871094 154.652344 184.90625 157.550781 C 186.949219 160.4375 189.023438 163.539062 191.105469 166.785156 C 193.15625 170.054688 195.183594 173.488281 197.199219 177.003906 C 199.222656 180.515625 201.292969 184.078125 203.410156 187.609375 C 207.636719 194.671875 211.894531 201.714844 215.800781 208.375 C 217.761719 211.699219 219.65625 214.914062 221.449219 217.960938 C 223.234375 221.019531 224.917969 223.910156 226.476562 226.578125 C 229.578125 231.917969 232.167969 236.367188 233.980469 239.480469 C 235.773438 242.605469 236.800781 244.394531 236.800781 244.394531 L 236.210938 244.769531"/></g><g id="change1_21"><path fill="#c6a242" d="M 240.683594 244.582031 C 240.683594 244.582031 240.585938 242.636719 240.414062 239.234375 C 240.230469 235.832031 240.046875 230.972656 239.789062 225.140625 C 239.660156 222.222656 239.523438 219.0625 239.382812 215.722656 C 239.253906 212.378906 239.117188 208.855469 238.976562 205.210938 C 238.683594 197.921875 238.476562 190.144531 238.234375 182.367188 C 238.113281 178.476562 237.941406 174.589844 237.753906 170.761719 C 237.5625 166.933594 237.417969 163.167969 237.386719 159.523438 C 237.390625 155.875 237.46875 152.351562 237.636719 149.011719 C 237.785156 145.667969 237.988281 142.507812 238.222656 139.59375 C 238.449219 136.675781 238.710938 134.003906 238.988281 131.632812 C 239.257812 129.265625 239.523438 127.199219 239.777344 125.496094 C 240.28125 122.09375 240.683594 120.152344 240.683594 120.152344 L 241.382812 120.152344 C 241.382812 120.152344 241.789062 122.09375 242.289062 125.496094 C 242.546875 127.199219 242.808594 129.265625 243.082031 131.632812 C 243.355469 134.003906 243.617188 136.675781 243.84375 139.59375 C 244.078125 142.507812 244.28125 145.667969 244.433594 149.011719 C 244.597656 152.351562 244.679688 155.875 244.679688 159.523438 C 244.648438 163.167969 244.507812 166.933594 244.3125 170.761719 C 244.128906 174.589844 243.953125 178.476562 243.835938 182.367188 C 243.59375 190.144531 243.386719 197.921875 243.089844 205.210938 C 242.949219 208.855469 242.816406 212.378906 242.6875 215.722656 C 242.542969 219.0625 242.40625 222.222656 242.28125 225.140625 C 242.019531 230.972656 241.839844 235.832031 241.652344 239.234375 C 241.480469 242.636719 241.382812 244.582031 241.382812 244.582031 L 240.683594 244.582031"/></g><g id="change1_1" clip-path="url(#a)"><path fill="#c6a242" d="M 195.710938 452.625 C 195.710938 456.730469 192.382812 460.054688 188.277344 460.054688 C 184.171875 460.054688 180.847656 456.730469 180.847656 452.625 C 180.847656 448.519531 184.171875 445.191406 188.277344 445.191406 C 192.382812 445.191406 195.710938 448.519531 195.710938 452.625"/></g><g id="change1_22"><path fill="#c6a242" d="M 374.804688 127.585938 C 374.804688 131.691406 371.476562 135.015625 367.371094 135.015625 C 363.265625 135.015625 359.941406 131.691406 359.941406 127.585938 C 359.941406 123.480469 363.265625 120.152344 367.371094 120.152344 C 371.476562 120.152344 374.804688 123.480469 374.804688 127.585938"/></g><g id="change1_23"><path fill="#c6a242" d="M 160.257812 120.152344 C 160.257812 124.257812 156.929688 127.585938 152.824219 127.585938 C 148.714844 127.585938 145.390625 124.257812 145.390625 120.152344 C 145.390625 116.046875 148.714844 112.71875 152.824219 112.71875 C 156.929688 112.71875 160.257812 116.046875 160.257812 120.152344"/></g><g id="change1_24"><path fill="#c6a242" d="M 88.75 288.441406 C 88.75 292.550781 85.421875 295.875 81.316406 295.875 C 77.210938 295.875 73.886719 292.550781 73.886719 288.441406 C 73.886719 284.339844 77.210938 281.011719 81.316406 281.011719 C 85.421875 281.011719 88.75 284.339844 88.75 288.441406"/></g><g id="change1_25"><path fill="#c6a242" d="M 419.699219 338.144531 C 419.699219 342.25 416.371094 345.574219 412.269531 345.574219 C 408.160156 345.574219 404.835938 342.25 404.835938 338.144531 C 404.835938 334.039062 408.160156 330.710938 412.269531 330.710938 C 416.371094 330.710938 419.699219 334.039062 419.699219 338.144531"/></g><g id="change1_26"><path fill="#c6a242" d="M 43.699219 127.585938 C 43.699219 131.691406 40.371094 135.015625 36.269531 135.015625 C 32.160156 135.015625 28.835938 131.691406 28.835938 127.585938 C 28.835938 123.480469 32.160156 120.152344 36.269531 120.152344 C 40.371094 120.152344 43.699219 123.480469 43.699219 127.585938"/></g><g id="change2_3"><path fill="#cac9c7" d="M 229.433594 195.507812 C 229.433594 195.507812 228.839844 193.269531 227.800781 189.347656 C 226.78125 185.421875 225.328125 179.8125 223.582031 173.085938 C 222.710938 169.71875 221.769531 166.074219 220.773438 162.21875 C 219.792969 158.359375 218.761719 154.289062 217.691406 150.078125 C 215.539062 141.660156 213.347656 132.65625 211.117188 123.664062 C 210.007812 119.167969 208.84375 114.679688 207.683594 110.269531 C 206.511719 105.855469 205.410156 101.507812 204.445312 97.273438 C 203.515625 93.03125 202.691406 88.914062 202 84.992188 C 201.292969 81.070312 200.679688 77.355469 200.164062 73.910156 C 199.640625 70.46875 199.210938 67.304688 198.871094 64.488281 C 198.53125 61.675781 198.261719 59.214844 198.074219 57.179688 C 197.691406 53.113281 197.589844 50.765625 197.589844 50.765625 L 198.273438 50.617188 C 198.273438 50.617188 199.167969 52.789062 200.527344 56.640625 C 201.210938 58.566406 201.996094 60.910156 202.871094 63.609375 C 203.746094 66.304688 204.683594 69.359375 205.652344 72.703125 C 206.628906 76.046875 207.632812 79.675781 208.636719 83.53125 C 209.652344 87.382812 210.632812 91.464844 211.566406 95.703125 C 212.472656 99.953125 213.296875 104.363281 214.085938 108.859375 C 214.882812 113.351562 215.710938 117.910156 216.589844 122.460938 C 218.339844 131.558594 220.128906 140.648438 221.707031 149.195312 C 222.503906 153.464844 223.273438 157.59375 224.003906 161.507812 C 224.71875 165.425781 225.394531 169.128906 226.015625 172.550781 C 227.257812 179.390625 228.289062 185.089844 229.011719 189.082031 C 229.714844 193.074219 230.117188 195.359375 230.117188 195.359375 L 229.433594 195.507812"/></g><g id="change2_4"><path fill="#cac9c7" d="M 211.460938 238.210938 C 211.460938 238.210938 209.265625 237.070312 205.421875 235.078125 C 201.589844 233.070312 196.113281 230.199219 189.542969 226.757812 C 186.261719 225.03125 182.703125 223.160156 178.941406 221.183594 C 175.175781 219.214844 171.238281 217.074219 167.144531 214.898438 C 158.972656 210.523438 150.253906 205.859375 141.535156 201.191406 C 137.160156 198.886719 132.804688 196.546875 128.480469 194.308594 C 124.15625 192.066406 119.925781 189.820312 115.886719 187.554688 C 111.863281 185.253906 108 182.984375 104.40625 180.714844 C 102.601562 179.589844 100.847656 178.492188 99.152344 177.4375 C 97.472656 176.34375 95.851562 175.292969 94.292969 174.28125 C 91.179688 172.257812 88.367188 170.328125 85.878906 168.617188 C 83.394531 166.890625 81.242188 165.359375 79.492188 164.066406 C 77.734375 162.78125 76.367188 161.75 75.449219 161.027344 C 74.527344 160.304688 74.035156 159.917969 74.035156 159.917969 L 74.382812 159.308594 C 74.382812 159.308594 74.964844 159.535156 76.054688 159.960938 C 77.148438 160.382812 78.730469 161.03125 80.734375 161.886719 C 82.738281 162.734375 85.152344 163.804688 87.902344 165.0625 C 90.644531 166.332031 93.738281 167.765625 97.066406 169.414062 C 98.730469 170.238281 100.464844 171.097656 102.257812 171.984375 C 104.035156 172.902344 105.871094 173.855469 107.757812 174.832031 C 111.542969 176.765625 115.464844 178.929688 119.496094 181.21875 C 123.507812 183.539062 127.597656 186.03125 131.726562 188.609375 C 135.855469 191.1875 140.089844 193.742188 144.308594 196.328125 C 152.765625 201.449219 161.226562 206.570312 169.15625 211.371094 C 173.117188 213.78125 176.964844 216.074219 180.578125 218.3125 C 184.195312 220.539062 187.617188 222.644531 190.777344 224.589844 C 197.089844 228.484375 202.351562 231.730469 206.035156 234.003906 C 209.707031 236.292969 211.804688 237.601562 211.804688 237.601562 L 211.460938 238.210938"/></g><g id="change2_5"><path fill="#cac9c7" d="M 250.453125 235.953125 C 250.453125 235.953125 251.746094 233.339844 254.007812 228.769531 C 256.289062 224.207031 259.546875 217.691406 263.453125 209.871094 C 265.410156 205.964844 267.53125 201.730469 269.773438 197.253906 C 272.039062 192.789062 274.429688 188.078125 276.898438 183.207031 C 281.855469 173.46875 287.140625 163.085938 292.425781 152.695312 C 295.039062 147.492188 297.65625 142.285156 300.234375 137.15625 C 302.777344 132.015625 305.324219 126.976562 307.882812 122.152344 C 310.476562 117.347656 313.027344 112.726562 315.566406 108.40625 C 316.828125 106.242188 318.054688 104.136719 319.238281 102.101562 C 320.457031 100.082031 321.632812 98.132812 322.765625 96.257812 C 325.019531 92.511719 327.171875 89.117188 329.074219 86.113281 C 330.992188 83.113281 332.691406 80.511719 334.121094 78.390625 C 335.546875 76.261719 336.691406 74.601562 337.488281 73.480469 C 338.285156 72.359375 338.710938 71.761719 338.710938 71.761719 L 339.328125 72.09375 C 339.328125 72.09375 339.0625 72.777344 338.570312 74.0625 C 338.074219 75.347656 337.320312 77.214844 336.332031 79.578125 C 335.351562 81.945312 334.117188 84.796875 332.679688 88.050781 C 331.21875 91.296875 329.578125 94.960938 327.695312 98.910156 C 326.757812 100.882812 325.777344 102.941406 324.765625 105.070312 C 323.722656 107.183594 322.644531 109.367188 321.53125 111.613281 C 319.332031 116.113281 316.886719 120.792969 314.304688 125.605469 C 311.691406 130.402344 308.894531 135.304688 306.011719 140.261719 C 303.15625 145.238281 300.257812 150.292969 297.355469 155.347656 C 291.609375 165.484375 285.863281 175.625 280.472656 185.128906 C 277.773438 189.878906 275.164062 194.46875 272.6875 198.820312 C 270.1875 203.160156 267.828125 207.265625 265.648438 211.054688 C 261.28125 218.628906 257.644531 224.9375 255.097656 229.355469 C 252.535156 233.765625 251.070312 236.28125 251.070312 236.28125 L 250.453125 235.953125"/></g><g id="change2_2" clip-path="url(#b)"><path fill="#cac9c7" d="M 275.203125 252.96875 C 275.203125 252.96875 278.484375 253.292969 284.230469 253.855469 C 289.96875 254.441406 298.171875 255.277344 308.011719 256.28125 C 312.933594 256.785156 318.261719 257.332031 323.898438 257.910156 C 329.535156 258.515625 335.476562 259.148438 341.621094 259.808594 C 353.914062 261.140625 367.027344 262.558594 380.136719 263.980469 C 386.695312 264.660156 393.257812 265.339844 399.714844 266.011719 C 406.175781 266.644531 412.527344 267.316406 418.660156 268.074219 C 424.789062 268.867188 430.710938 269.691406 436.304688 270.605469 C 439.105469 271.050781 441.824219 271.480469 444.460938 271.902344 C 447.089844 272.355469 449.628906 272.796875 452.066406 273.21875 C 456.941406 274.058594 461.402344 274.921875 465.355469 275.6875 C 469.304688 276.464844 472.746094 277.175781 475.574219 277.796875 C 478.402344 278.410156 480.621094 278.917969 482.132812 279.285156 C 483.644531 279.652344 484.449219 279.847656 484.449219 279.847656 L 484.359375 280.542969 C 484.359375 280.542969 483.53125 280.527344 481.976562 280.503906 C 480.421875 280.476562 478.144531 280.40625 475.253906 280.285156 C 472.359375 280.171875 468.851562 279.988281 464.832031 279.742188 C 460.816406 279.484375 456.285156 279.191406 451.351562 278.773438 C 448.886719 278.566406 446.316406 278.347656 443.660156 278.125 C 441.007812 277.863281 438.261719 277.597656 435.441406 277.320312 C 429.796875 276.789062 423.863281 276.085938 417.734375 275.308594 C 411.605469 274.488281 405.289062 273.535156 398.878906 272.515625 C 392.460938 271.53125 385.941406 270.53125 379.425781 269.53125 C 366.378906 267.59375 353.335938 265.652344 341.105469 263.832031 C 334.992188 262.917969 329.082031 262.03125 323.480469 261.191406 C 317.878906 260.324219 312.582031 259.507812 307.695312 258.753906 C 297.917969 257.234375 289.773438 255.972656 284.070312 255.085938 C 278.371094 254.179688 275.113281 253.664062 275.113281 253.664062 L 275.203125 252.96875"/></g><g id="change2_1" clip-path="url(#c)"><path fill="#cac9c7" d="M 270.492188 290.125 C 270.492188 290.125 271.980469 292.730469 274.589844 297.292969 C 277.175781 301.863281 280.871094 308.394531 285.3125 316.230469 C 287.523438 320.152344 289.925781 324.398438 292.464844 328.890625 C 294.980469 333.394531 297.632812 338.140625 300.378906 343.054688 C 305.855469 352.886719 311.695312 363.375 317.535156 373.863281 C 320.484375 379.09375 323.429688 384.324219 326.332031 389.472656 C 329.265625 394.605469 332.105469 399.675781 334.765625 404.636719 C 337.386719 409.613281 339.875 414.449219 342.113281 419.097656 C 343.246094 421.417969 344.34375 423.675781 345.40625 425.855469 C 346.4375 428.054688 347.4375 430.179688 348.390625 432.222656 C 350.308594 436.300781 351.980469 440.082031 353.464844 443.433594 C 354.9375 446.792969 356.191406 449.734375 357.191406 452.175781 C 358.199219 454.609375 358.96875 456.539062 359.476562 457.863281 C 359.980469 459.1875 360.25 459.890625 360.25 459.890625 L 359.632812 460.21875 C 359.632812 460.21875 359.199219 459.597656 358.390625 458.4375 C 357.578125 457.273438 356.421875 455.554688 354.976562 453.347656 C 353.519531 451.148438 351.796875 448.449219 349.847656 445.34375 C 347.914062 442.230469 345.730469 438.71875 343.441406 434.839844 C 342.292969 432.898438 341.097656 430.878906 339.859375 428.789062 C 338.65625 426.683594 337.410156 424.503906 336.128906 422.261719 C 333.550781 417.792969 330.953125 413.015625 328.316406 408.042969 C 325.714844 403.058594 323.121094 397.851562 320.535156 392.535156 C 317.914062 387.238281 315.25 381.859375 312.585938 376.480469 C 307.210938 365.746094 301.832031 355.015625 296.789062 344.949219 C 294.273438 339.917969 291.84375 335.050781 289.539062 330.433594 C 287.257812 325.808594 285.097656 321.433594 283.105469 317.398438 C 279.128906 309.316406 275.8125 302.585938 273.492188 297.871094 C 271.191406 293.148438 269.875 290.449219 269.875 290.449219 L 270.492188 290.125"/></g><g id="change2_6"><path fill="#cac9c7" d="M 204.6875 238.246094 C 204.6875 238.246094 201.664062 237.648438 196.371094 236.605469 C 191.082031 235.539062 183.527344 234.019531 174.460938 232.195312 C 169.929688 231.277344 165.019531 230.285156 159.824219 229.238281 C 154.640625 228.164062 149.167969 227.03125 143.507812 225.859375 C 132.195312 223.503906 120.125 220.988281 108.058594 218.472656 C 102.015625 217.246094 95.972656 216.015625 90.027344 214.808594 C 84.074219 213.632812 78.222656 212.429688 72.585938 211.160156 C 66.960938 209.855469 61.53125 208.539062 56.414062 207.164062 C 53.851562 206.484375 51.359375 205.824219 48.949219 205.1875 C 46.550781 204.515625 44.230469 203.863281 42 203.238281 C 37.546875 201.992188 33.480469 200.757812 29.878906 199.667969 C 26.28125 198.5625 23.148438 197.566406 20.582031 196.710938 C 18.007812 195.863281 15.996094 195.171875 14.625 194.679688 C 13.257812 194.1875 12.527344 193.925781 12.527344 193.925781 L 12.683594 193.242188 C 12.683594 193.242188 13.457031 193.328125 14.902344 193.484375 C 16.347656 193.640625 18.460938 193.902344 21.144531 194.265625 C 23.828125 194.621094 27.078125 195.101562 30.796875 195.679688 C 34.515625 196.277344 38.707031 196.949219 43.261719 197.78125 C 45.535156 198.195312 47.90625 198.628906 50.359375 199.074219 C 52.808594 199.554688 55.335938 200.054688 57.933594 200.566406 C 63.140625 201.570312 68.59375 202.765625 74.226562 204.054688 C 79.847656 205.382812 85.632812 206.863281 91.5 208.417969 C 97.378906 209.933594 103.347656 211.476562 109.316406 213.015625 C 121.265625 216.042969 133.21875 219.070312 144.421875 221.90625 C 150.019531 223.332031 155.4375 224.710938 160.570312 226.015625 C 165.695312 227.347656 170.546875 228.605469 175.019531 229.765625 C 183.96875 232.097656 191.429688 234.039062 196.648438 235.398438 C 201.863281 236.777344 204.84375 237.566406 204.84375 237.566406 L 204.6875 238.246094"/></g><g id="change2_7"><path fill="#cac9c7" d="M 215.277344 276.527344 C 215.277344 276.527344 212.855469 278.992188 208.617188 283.308594 C 204.363281 287.609375 198.289062 293.757812 191 301.132812 C 187.351562 304.816406 183.402344 308.808594 179.222656 313.03125 C 175.027344 317.234375 170.601562 321.667969 166.023438 326.253906 C 156.855469 335.417969 147.078125 345.191406 137.300781 354.964844 C 132.433594 359.871094 127.566406 364.777344 122.773438 369.609375 C 118.007812 374.464844 113.28125 379.210938 108.632812 383.726562 C 103.960938 388.210938 99.40625 392.511719 94.992188 396.488281 C 92.792969 398.488281 90.65625 400.433594 88.585938 402.3125 C 86.492188 404.164062 84.46875 405.957031 82.527344 407.675781 C 78.644531 411.113281 75.019531 414.199219 71.808594 416.941406 C 68.589844 419.664062 65.757812 422.019531 63.402344 423.933594 C 61.050781 425.847656 59.1875 427.335938 57.902344 428.335938 C 56.613281 429.335938 55.929688 429.867188 55.929688 429.867188 L 55.445312 429.363281 C 55.445312 429.363281 56.003906 428.699219 57.050781 427.453125 C 58.097656 426.207031 59.65625 424.398438 61.664062 422.125 C 63.664062 419.84375 66.125 417.105469 68.972656 413.988281 C 71.832031 410.890625 75.054688 407.386719 78.644531 403.640625 C 80.433594 401.765625 82.300781 399.8125 84.234375 397.789062 C 86.191406 395.796875 88.214844 393.730469 90.296875 391.609375 C 94.441406 387.355469 98.914062 382.96875 103.578125 378.472656 C 108.265625 374 113.1875 369.460938 118.226562 364.882812 C 123.238281 360.28125 128.328125 355.605469 133.417969 350.929688 C 143.558594 341.53125 153.699219 332.140625 163.207031 323.332031 C 167.96875 318.933594 172.566406 314.679688 176.929688 310.648438 C 181.308594 306.636719 185.449219 302.839844 189.269531 299.335938 C 196.921875 292.335938 203.296875 286.5 207.757812 282.417969 C 212.234375 278.347656 214.792969 276.023438 214.792969 276.023438 L 215.277344 276.527344"/></g><g id="change2_8"><path fill="#cac9c7" d="M 213.914062 290.484375 C 213.914062 290.484375 212.773438 292.34375 210.773438 295.59375 C 208.761719 298.835938 205.882812 303.46875 202.429688 309.023438 C 200.699219 311.800781 198.824219 314.808594 196.839844 317.988281 C 194.847656 321.160156 192.742188 324.507812 190.5625 327.96875 C 186.222656 334.898438 181.5 342.230469 176.808594 349.578125 C 174.464844 353.253906 172.160156 356.960938 169.90625 360.613281 C 167.660156 364.273438 165.410156 367.851562 163.140625 371.25 C 160.847656 374.632812 158.566406 377.855469 156.324219 380.863281 C 154.097656 383.878906 151.945312 386.695312 149.914062 389.269531 C 147.894531 391.847656 145.996094 394.183594 144.277344 396.226562 C 142.5625 398.273438 141.042969 400.039062 139.761719 401.476562 C 137.207031 404.351562 135.648438 405.925781 135.648438 405.925781 L 135.070312 405.535156 C 135.070312 405.535156 135.957031 403.503906 137.683594 400.066406 C 138.542969 398.34375 139.621094 396.277344 140.890625 393.929688 C 142.152344 391.574219 143.617188 388.949219 145.261719 386.113281 C 146.902344 383.277344 148.722656 380.234375 150.699219 377.046875 C 152.664062 373.855469 154.8125 370.542969 157.105469 367.15625 C 159.425781 363.792969 161.910156 360.378906 164.480469 356.9375 C 167.039062 353.488281 169.628906 349.976562 172.175781 346.4375 C 177.269531 339.359375 182.328125 332.261719 187.160156 325.660156 C 189.566406 322.355469 191.898438 319.164062 194.105469 316.136719 C 196.324219 313.113281 198.425781 310.261719 200.363281 307.625 C 204.246094 302.359375 207.484375 297.972656 209.75 294.898438 C 212.03125 291.839844 213.335938 290.089844 213.335938 290.089844 L 213.914062 290.484375"/></g><g id="change2_9"><path fill="#cac9c7" d="M 111.164062 199.09375 C 111.164062 199.09375 109.394531 198.644531 106.304688 197.859375 C 103.210938 197.085938 98.816406 195.90625 93.527344 194.527344 C 90.882812 193.835938 88.019531 193.082031 84.992188 192.289062 C 81.96875 191.480469 78.78125 190.625 75.480469 189.742188 C 68.878906 187.988281 61.871094 186.019531 54.851562 184.078125 C 51.34375 183.109375 47.816406 182.191406 44.339844 181.300781 C 40.863281 180.417969 37.457031 179.503906 34.191406 178.515625 C 30.933594 177.496094 27.808594 176.4375 24.875 175.347656 C 21.933594 174.269531 19.171875 173.195312 16.636719 172.160156 C 14.097656 171.128906 11.789062 170.132812 9.753906 169.210938 C 7.71875 168.289062 5.949219 167.460938 4.507812 166.742188 C 1.617188 165.316406 0 164.386719 0 164.386719 L 0.207031 163.71875 C 0.207031 163.71875 2.066406 163.875 5.253906 164.347656 C 6.851562 164.578125 8.773438 164.902344 10.972656 165.304688 C 13.171875 165.703125 15.636719 166.199219 18.3125 166.796875 C 20.984375 167.382812 23.867188 168.070312 26.898438 168.859375 C 29.933594 169.632812 33.105469 170.539062 36.363281 171.554688 C 39.609375 172.601562 42.933594 173.785156 46.296875 175.039062 C 49.660156 176.285156 53.082031 177.535156 56.519531 178.734375 C 63.394531 181.136719 70.28125 183.503906 76.707031 185.816406 C 79.921875 186.964844 83.03125 188.078125 85.976562 189.132812 C 88.917969 190.203125 91.703125 191.214844 94.269531 192.148438 C 99.402344 194.023438 103.691406 195.554688 106.675781 196.679688 C 109.664062 197.789062 111.371094 198.425781 111.371094 198.425781 L 111.164062 199.09375"/></g><g id="change2_10"><path fill="#cac9c7" d="M 237.105469 282.46875 C 237.105469 282.46875 237.03125 283.902344 236.902344 286.414062 C 236.785156 288.929688 236.539062 292.507812 236.285156 296.8125 C 236.15625 298.960938 236.011719 301.289062 235.863281 303.753906 C 235.695312 306.21875 235.519531 308.8125 235.339844 311.5 C 234.992188 316.871094 234.515625 322.589844 234.070312 328.316406 C 233.847656 331.175781 233.679688 334.042969 233.527344 336.867188 C 233.382812 339.695312 233.195312 342.46875 232.902344 345.144531 C 232.585938 347.8125 232.203125 350.382812 231.734375 352.808594 C 231.289062 355.238281 230.8125 357.527344 230.324219 359.636719 C 229.84375 361.742188 229.347656 363.671875 228.867188 365.371094 C 228.386719 367.074219 227.945312 368.554688 227.539062 369.769531 C 226.746094 372.203125 226.171875 373.578125 226.171875 373.578125 L 225.476562 373.492188 C 225.476562 373.492188 225.246094 372.023438 225.050781 369.472656 C 224.945312 368.195312 224.863281 366.652344 224.800781 364.882812 C 224.738281 363.117188 224.710938 361.128906 224.742188 358.964844 C 224.765625 356.800781 224.84375 354.464844 224.984375 352 C 225.105469 349.53125 225.34375 346.941406 225.664062 344.273438 C 226.015625 341.609375 226.484375 338.867188 227.015625 336.089844 C 227.535156 333.308594 228.050781 330.480469 228.511719 327.648438 C 229.433594 321.980469 230.324219 316.3125 231.257812 311.007812 C 231.714844 308.355469 232.160156 305.792969 232.578125 303.359375 C 233.015625 300.929688 233.429688 298.632812 233.8125 296.515625 C 234.582031 292.273438 235.191406 288.734375 235.671875 286.265625 C 236.140625 283.796875 236.410156 282.382812 236.410156 282.382812 L 237.105469 282.46875"/></g><g id="change2_11"><path fill="#cac9c7" d="M 301.714844 101.03125 C 301.714844 101.03125 302.535156 99.40625 303.96875 96.558594 C 305.394531 93.703125 307.496094 89.664062 309.988281 84.800781 C 311.234375 82.371094 312.589844 79.738281 314.019531 76.953125 C 315.464844 74.175781 316.984375 71.246094 318.5625 68.21875 C 321.699219 62.152344 325.140625 55.734375 328.550781 49.300781 C 330.257812 46.082031 331.914062 42.839844 333.535156 39.640625 C 335.148438 36.433594 336.777344 33.304688 338.449219 30.328125 C 340.148438 27.371094 341.859375 24.550781 343.558594 21.917969 C 345.246094 19.28125 346.890625 16.816406 348.453125 14.566406 C 350.007812 12.3125 351.476562 10.269531 352.820312 8.484375 C 354.15625 6.695312 355.347656 5.148438 356.363281 3.894531 C 358.382812 1.382812 359.636719 0.00390625 359.636719 0.00390625 L 360.242188 0.351562 C 360.242188 0.351562 359.691406 2.132812 358.539062 5.144531 C 357.972656 6.652344 357.238281 8.460938 356.371094 10.519531 C 355.507812 12.578125 354.488281 14.878906 353.328125 17.359375 C 352.175781 19.84375 350.878906 22.511719 349.453125 25.300781 C 348.042969 28.09375 346.472656 30.996094 344.777344 33.957031 C 343.054688 36.902344 341.175781 39.890625 339.226562 42.898438 C 337.28125 45.914062 335.320312 48.988281 333.40625 52.085938 C 329.578125 58.277344 325.777344 64.488281 322.128906 70.261719 C 320.3125 73.152344 318.554688 75.945312 316.886719 78.597656 C 315.207031 81.238281 313.617188 83.734375 312.148438 86.039062 C 309.210938 90.648438 306.789062 94.503906 305.046875 97.171875 C 303.3125 99.851562 302.320312 101.378906 302.320312 101.378906 L 301.714844 101.03125"/></g><g id="change2_12"><path fill="#cac9c7" d="M 125.203125 258.648438 C 125.203125 258.648438 124.121094 258.796875 122.230469 259.0625 C 120.339844 259.339844 117.632812 259.652344 114.386719 260.070312 C 112.765625 260.277344 111.007812 260.5 109.148438 260.734375 C 107.285156 260.953125 105.324219 261.183594 103.296875 261.425781 C 99.238281 261.914062 94.90625 262.335938 90.574219 262.789062 C 88.40625 263.015625 86.242188 263.292969 84.113281 263.582031 C 81.984375 263.882812 79.890625 264.125 77.855469 264.257812 C 75.820312 264.371094 73.84375 264.371094 71.96875 264.292969 C 70.097656 264.234375 68.324219 264.117188 66.683594 263.964844 C 65.042969 263.816406 63.535156 263.621094 62.199219 263.421875 C 60.863281 263.230469 59.695312 262.992188 58.734375 262.792969 C 56.808594 262.386719 55.703125 262.035156 55.703125 262.035156 L 55.667969 261.335938 C 55.667969 261.335938 56.734375 260.878906 58.609375 260.285156 C 59.550781 259.996094 60.6875 259.644531 62 259.324219 C 63.308594 258.992188 64.789062 258.652344 66.410156 258.347656 C 68.027344 258.035156 69.78125 257.746094 71.640625 257.503906 C 73.496094 257.246094 75.460938 257.054688 77.5 256.972656 C 79.535156 256.902344 81.648438 256.941406 83.792969 257.03125 C 85.941406 257.113281 88.121094 257.179688 90.300781 257.195312 C 94.65625 257.226562 99.007812 257.21875 103.097656 257.316406 C 105.140625 257.355469 107.113281 257.394531 108.984375 257.433594 C 110.859375 257.484375 112.632812 257.535156 114.265625 257.582031 C 117.535156 257.683594 120.261719 257.730469 122.167969 257.824219 C 124.078125 257.902344 125.167969 257.945312 125.167969 257.945312 L 125.203125 258.648438"/></g><g id="change2_13"><path fill="#cac9c7" d="M 146.296875 365.871094 C 146.296875 365.871094 144.453125 368.957031 141.59375 373.503906 C 140.15625 375.773438 138.484375 378.425781 136.652344 381.234375 C 134.851562 384.066406 132.84375 387.019531 130.863281 389.996094 C 129.871094 391.484375 128.925781 393.003906 128.003906 394.511719 C 127.082031 396.015625 126.15625 397.484375 125.15625 398.820312 C 124.148438 400.15625 123.089844 401.382812 122.023438 402.496094 C 120.96875 403.617188 119.925781 404.644531 118.925781 405.5625 C 117.933594 406.484375 116.972656 407.296875 116.101562 407.996094 C 115.234375 408.699219 114.425781 409.273438 113.757812 409.742188 C 112.410156 410.675781 111.546875 411.136719 111.546875 411.136719 L 110.988281 410.710938 C 110.988281 410.710938 111.210938 409.757812 111.765625 408.214844 C 112.046875 407.445312 112.390625 406.515625 112.847656 405.5 C 113.296875 404.472656 113.832031 403.339844 114.46875 402.140625 C 115.097656 400.9375 115.816406 399.664062 116.632812 398.355469 C 117.433594 397.039062 118.339844 395.699219 119.371094 394.382812 C 120.402344 393.066406 121.582031 391.792969 122.800781 390.515625 C 124.015625 389.238281 125.238281 387.929688 126.421875 386.585938 C 128.785156 383.90625 131.121094 381.203125 133.390625 378.730469 C 135.632812 376.234375 137.761719 373.933594 139.582031 371.960938 C 143.238281 368.023438 145.738281 365.445312 145.738281 365.445312 L 146.296875 365.871094"/></g><g id="change2_14"><path fill="#cac9c7" d="M 233.554688 50.691406 C 233.554688 54.960938 230.09375 58.421875 225.824219 58.421875 C 221.554688 58.421875 218.09375 54.960938 218.09375 50.691406 C 218.09375 46.421875 221.554688 42.964844 225.824219 42.964844 C 230.09375 42.964844 233.554688 46.421875 233.554688 50.691406"/></g><g id="change2_15"><path fill="#cac9c7" d="M 472.203125 249.90625 C 472.203125 254.175781 468.746094 257.632812 464.476562 257.632812 C 460.203125 257.632812 456.746094 254.175781 456.746094 249.90625 C 456.746094 245.632812 460.203125 242.179688 464.476562 242.179688 C 468.746094 242.179688 472.203125 245.632812 472.203125 249.90625"/></g><g id="change2_16"><path fill="#cac9c7" d="M 147.71875 445.191406 C 147.71875 449.460938 144.257812 452.917969 139.992188 452.917969 C 135.71875 452.917969 132.261719 449.460938 132.261719 445.191406 C 132.261719 440.917969 135.71875 437.464844 139.992188 437.464844 C 144.257812 437.464844 147.71875 440.917969 147.71875 445.191406"/></g><g id="change2_17"><path fill="#cac9c7" d="M 419.996094 413.457031 C 419.996094 417.730469 416.535156 421.1875 412.269531 421.1875 C 407.996094 421.1875 404.539062 417.730469 404.539062 413.457031 C 404.539062 409.1875 407.996094 405.730469 412.269531 405.730469 C 416.535156 405.730469 419.996094 409.1875 419.996094 413.457031"/></g><g id="change2_18"><path fill="#cac9c7" d="M 28.0625 330.710938 C 28.0625 334.980469 24.605469 338.4375 20.335938 338.4375 C 16.066406 338.4375 12.605469 334.980469 12.605469 330.710938 C 12.605469 326.4375 16.066406 322.980469 20.335938 322.980469 C 24.605469 322.980469 28.0625 326.4375 28.0625 330.710938"/></g></g></svg>